<svg width="48" height="48" viewBox="0 0 48 48" fill="none" xmlns="http://www.w3.org/2000/svg">
<rect width="48" height="48" fill="#353543"/>
<path d="M3.81169 33.7847V13.294H11.8959C13.45 13.294 14.7741 13.5908 15.868 14.1844C16.9619 14.7714 17.7956 15.5885 18.3693 16.6357C18.9496 17.6763 19.2397 18.8769 19.2397 20.2376C19.2397 21.5983 18.9462 22.7989 18.3593 23.8395C17.7723 24.88 16.9219 25.6904 15.8079 26.2708C14.7007 26.8511 13.36 27.1412 11.7858 27.1412H6.63316V23.6694H11.0855C11.9193 23.6694 12.6063 23.526 13.1466 23.2392C13.6935 22.9457 14.1004 22.5421 14.3672 22.0285C14.6407 21.5083 14.7774 20.9113 14.7774 20.2376C14.7774 19.5572 14.6407 18.9636 14.3672 18.4567C14.1004 17.9431 13.6935 17.5462 13.1466 17.2661C12.5996 16.9792 11.9059 16.8358 11.0655 16.8358H8.14395V33.7847H3.81169Z" fill="white"/>
<path d="M22.0537 13.294H27.3965L33.0394 27.0612H33.2796L38.9225 13.294H44.2653V33.7847H40.0631V20.4477H39.893L34.5902 33.6846H31.7287L26.426 20.3977H26.2559V33.7847H22.0537V13.294Z" fill="#FFBA1A"/>
</svg>
