<svg width="42" height="34" viewBox="0 0 42 34" fill="none" xmlns="http://www.w3.org/2000/svg">
<path d="M3.56318 4.8705C6.50856 1.63837 10.9655 0 16.8079 0H18.9073V5.99037L17.2194 6.3325C14.3433 6.91475 12.3426 8.06012 11.272 9.741C10.7133 10.6465 10.3965 11.6833 10.3525 12.75H16.8079C17.3647 12.75 17.8987 12.9739 18.2924 13.3724C18.6861 13.7709 18.9073 14.3114 18.9073 14.875V29.75C18.9073 32.0939 17.0242 34 14.7086 34H2.11254C1.55576 34 1.02179 33.7761 0.628083 33.3776C0.23438 32.9791 0.0132003 32.4386 0.0132003 31.875V21.25L0.0194984 15.0471C0.0006043 14.8113 -0.39827 9.2225 3.56318 4.8705ZM37.8013 34H25.2053C24.6485 34 24.1145 33.7761 23.7208 33.3776C23.3271 32.9791 23.1059 32.4386 23.1059 31.875V21.25L23.1122 15.0471C23.0933 14.8113 22.6945 9.2225 26.6559 4.8705C29.6013 1.63837 34.0582 0 39.9007 0H42V5.99037L40.3121 6.3325C37.436 6.91475 35.4354 8.06012 34.3647 9.741C33.8061 10.6465 33.4892 11.6833 33.4452 12.75H39.9007C40.4574 12.75 40.9914 12.9739 41.3851 13.3724C41.7788 13.7709 42 14.3114 42 14.875V29.75C42 32.0939 40.1169 34 37.8013 34Z" fill="#FFBA1A"/>
</svg>
